<?xml version="1.0" encoding="utf-8"?>
<!-- Generator: Adobe Illustrator 25.0.0, SVG Export Plug-In . SVG Version: 6.00 Build 0)  -->
<svg version="1.1" id="圖層_2" xmlns="http://www.w3.org/2000/svg" xmlns:xlink="http://www.w3.org/1999/xlink" x="0px" y="0px"
	 viewBox="0 0 500 500" style="enable-background:new 0 0 500 500;" xml:space="preserve">
<style type="text/css">
	.st0{fill:#FFFFFF;}
</style>
<g>
	<path class="st0" d="M289.57,8c23.88,0,47.07,5,68.93,14.85c20.81,9.38,40.09,22.99,57.3,40.45
		c45.68,46.33,72.37,115.59,71.39,185.27c-0.45,31.79-6.66,62.22-18.45,90.43c-11.32,27.06-27.57,51.64-48.3,73.04
		c-20.39,21.06-44.58,38.5-71.89,51.86c-27.59,13.49-57.6,22.41-89.17,26.52c-8.04,1.05-16.13,1.58-24.07,1.58
		c-27.99,0-55.04-6.47-80.42-19.22c-24.27-12.2-46.41-29.81-65.79-52.34c-19.06-22.15-34.7-48.15-46.5-77.29
		c-11.95-29.51-19.43-60.96-22.24-93.49c-5.73-66.44,13.85-121.02,58.21-162.22c20.83-19.35,47.24-35.76,78.48-48.78
		c30.39-12.67,65.59-22.23,104.6-28.42C270.99,8.75,280.37,8,289.57,8L289.57,8 M289.56,0c-9.51,0-19.24,0.76-29.15,2.33
		C104.13,27.1-0.04,106.19,12.4,250.34c11.62,134.63,102.46,249.65,222.91,249.65c8.23,0,16.61-0.54,25.1-1.64
		c130.92-17.04,232.89-115.06,234.78-249.66C496.98,121.73,410.23-0.01,289.56,0L289.56,0z"/>
</g>
</svg>
