<?xml version="1.0" encoding="utf-8"?>
<!-- Generator: Adobe Illustrator 25.0.0, SVG Export Plug-In . SVG Version: 6.00 Build 0)  -->
<svg version="1.1" id="圖層_2" xmlns="http://www.w3.org/2000/svg" xmlns:xlink="http://www.w3.org/1999/xlink" x="0px" y="0px"
	 viewBox="0 0 500 500" style="enable-background:new 0 0 500 500;" xml:space="preserve">
<style type="text/css">
	.st0{fill:#FFFFFF;}
</style>
<g>
	<path class="st0" d="M289.57,3c24.59,0,48.48,5.15,70.99,15.3c21.37,9.64,41.16,23.6,58.81,41.5
		c46.6,47.26,73.83,117.86,72.83,188.85c-0.46,32.43-6.8,63.48-18.84,92.28c-11.56,27.64-28.15,52.74-49.32,74.59
		c-20.8,21.47-45.46,39.26-73.29,52.87c-28.08,13.73-58.61,22.81-90.72,26.99c-8.25,1.07-16.56,1.62-24.71,1.62
		c-28.77,0-56.59-6.65-82.67-19.76c-24.86-12.5-47.52-30.51-67.33-53.54c-19.41-22.56-35.34-49.03-47.34-78.68
		c-12.14-29.97-19.73-61.91-22.58-94.94C9.51,182.02,29.63,126.07,75.18,83.77c21.27-19.75,48.17-36.49,79.96-49.74
		c30.76-12.82,66.34-22.49,105.75-28.74C270.46,3.77,280.11,3,289.57,3L289.57,3 M289.56,0c-9.51,0-19.24,0.76-29.15,2.33
		C104.13,27.1-0.04,106.19,12.4,250.34c11.62,134.63,102.46,249.65,222.91,249.65c8.23,0,16.61-0.54,25.1-1.64
		c130.92-17.04,232.89-115.06,234.78-249.66C496.98,121.73,410.23-0.01,289.56,0L289.56,0z"/>
</g>
</svg>
