<?xml version="1.0" encoding="utf-8"?>
<!-- Generator: Adobe Illustrator 25.0.0, SVG Export Plug-In . SVG Version: 6.00 Build 0)  -->
<svg version="1.1" id="圖層_2" xmlns="http://www.w3.org/2000/svg" xmlns:xlink="http://www.w3.org/1999/xlink" x="0px" y="0px"
	 viewBox="0 0 500 500" style="enable-background:new 0 0 500 500;" xml:space="preserve">
<style type="text/css">
	.st0{fill:#FFFFFF;}
</style>
<g>
	<path class="st0" d="M271.31,4.96c54.38,0,106.61,23.46,147.05,66.06c21.93,23.1,39.64,51.28,51.22,81.48
		c11.81,30.81,17.19,63.72,15.56,95.17c-2.91,56-25.57,117.44-60.63,164.35c-18.73,25.06-39.97,44.84-63.13,58.78
		c-25.19,15.17-51.87,22.86-79.28,22.86c-7.66,0-15.46-0.61-23.2-1.82c-37.97-5.92-97.33-27.77-150.06-71.35
		c-40.01-33.07-88.69-89.74-93.4-171.91c-3.9-67.99,17.65-126.98,62.3-170.59c21.55-21.04,47.96-37.96,78.52-50.28
		c30.92-12.47,65.5-19.99,102.77-22.36C263.11,5.09,267.23,4.96,271.31,4.96L271.31,4.96 M271.29,1.96c-4.11,0-8.27,0.13-12.45,0.4
		C107,12,4.3,106.54,12.45,248.75C21,398,173.86,481.62,258.44,494.8c8.03,1.25,15.91,1.85,23.66,1.85
		c117.2,0,200.28-137.98,206.03-248.83C494.48,125.63,398.01,1.95,271.29,1.96L271.29,1.96z"/>
</g>
</svg>
