<?xml version="1.0" encoding="utf-8"?>
<!-- Generator: Adobe Illustrator 25.0.0, SVG Export Plug-In . SVG Version: 6.00 Build 0)  -->
<svg version="1.1" id="圖層_2" xmlns="http://www.w3.org/2000/svg" xmlns:xlink="http://www.w3.org/1999/xlink" x="0px" y="0px"
	 viewBox="0 0 500 500" style="enable-background:new 0 0 500 500;" xml:space="preserve">
<style type="text/css">
	.st0{fill:#FFFFFF;}
</style>
<g>
	<path class="st0" d="M289.57,1c24.88,0,49.04,5.21,71.81,15.47c21.6,9.74,41.59,23.84,59.41,41.92
		c46.97,47.63,74.41,118.77,73.4,190.28c-0.46,32.69-6.85,63.99-19,93.03c-11.66,27.87-28.39,53.18-49.73,75.21
		c-20.96,21.64-45.81,39.56-73.85,53.27c-28.28,13.83-59.01,22.97-91.34,27.18c-8.33,1.08-16.74,1.63-24.97,1.63
		c-29.09,0-57.2-6.72-83.56-19.97c-25.1-12.62-47.96-30.79-67.95-54.02c-39.65-46.09-64.66-108.15-70.4-174.75
		c-5.93-68.7,14.4-125.21,60.42-167.95c21.44-19.91,48.54-36.77,80.55-50.12C185.27,19.3,221,9.59,260.57,3.32
		C270.25,1.78,280.01,1,289.57,1L289.57,1 M289.56,0c-9.51,0-19.24,0.76-29.15,2.33C104.13,27.1-0.04,106.19,12.4,250.34
		c11.62,134.63,102.46,249.65,222.91,249.65c8.23,0,16.61-0.54,25.1-1.64c130.92-17.04,232.89-115.06,234.78-249.66
		C496.98,121.73,410.23-0.01,289.56,0L289.56,0z"/>
</g>
</svg>
