<?xml version="1.0" encoding="utf-8"?>
<!-- Generator: Adobe Illustrator 25.0.0, SVG Export Plug-In . SVG Version: 6.00 Build 0)  -->
<svg version="1.1" id="圖層_2" xmlns="http://www.w3.org/2000/svg" xmlns:xlink="http://www.w3.org/1999/xlink" x="0px" y="0px"
	 viewBox="0 0 500 500" style="enable-background:new 0 0 500 500;" xml:space="preserve">
<style type="text/css">
	.st0{fill:#808080;}
</style>
<g>
	<path class="st0" d="M289.57,2c24.73,0,48.76,5.18,71.4,15.39c21.49,9.69,41.37,23.72,59.11,41.71
		c46.78,47.45,74.12,118.31,73.11,189.56c-0.46,32.56-6.82,63.74-18.92,92.66c-11.61,27.76-28.27,52.96-49.53,74.9
		c-20.88,21.56-45.63,39.41-73.57,53.07c-28.18,13.78-58.81,22.89-91.03,27.08c-8.29,1.08-16.65,1.63-24.84,1.63
		c-28.93,0-56.9-6.68-83.12-19.86c-24.98-12.56-47.74-30.65-67.64-53.78c-39.52-45.93-64.44-107.79-70.17-174.18
		C8.49,181.79,28.71,125.56,74.5,83.03c21.35-19.83,48.35-36.63,80.25-49.93c30.83-12.85,66.49-22.54,105.97-28.8
		C270.36,2.78,280.06,2,289.57,2L289.57,2 M289.56,0c-9.51,0-19.24,0.76-29.15,2.33C104.13,27.1-0.04,106.19,12.4,250.34
		c11.62,134.63,102.46,249.65,222.91,249.65c8.23,0,16.61-0.54,25.1-1.64c130.92-17.04,232.89-115.06,234.78-249.66
		C496.98,121.73,410.23-0.01,289.56,0L289.56,0z"/>
</g>
</svg>
