<?xml version="1.0" encoding="utf-8"?>
<!-- Generator: Adobe Illustrator 16.0.0, SVG Export Plug-In . SVG Version: 6.00 Build 0)  -->
<!DOCTYPE svg PUBLIC "-//W3C//DTD SVG 1.1//EN" "http://www.w3.org/Graphics/SVG/1.1/DTD/svg11.dtd">
<svg version="1.1" id="Layer_1" xmlns="http://www.w3.org/2000/svg" xmlns:xlink="http://www.w3.org/1999/xlink" x="0px" y="0px"
	 width="200.641px" height="44.856px" viewBox="0 0 200.641 44.856" enable-background="new 0 0 200.641 44.856"
	 xml:space="preserve">
<g>
	<rect y="1.021" width="9.176" height="42.815"/>
	<polygon points="47.914,9.175 47.914,1.02 18.351,1.02 18.351,43.835 27.525,43.835 27.525,26.507 44.854,26.507 44.854,18.351 
		27.525,18.351 27.525,9.175 	"/>
	<polygon points="126.413,1.02 126.413,18.352 109.084,18.352 109.084,1.02 99.907,1.02 99.907,43.837 109.084,43.837 
		109.084,26.505 126.413,26.505 126.413,43.837 135.588,43.837 135.588,1.02 	"/>
	<rect x="144.762" y="1.021" width="9.176" height="42.815"/>
	<path d="M182.483,36.7v0.004V36.7c-7.135,0-12.232-5.096-12.232-14.272c0-9.176,5.098-14.271,12.232-14.271V8.152v0.004
		c4.705,0,8.512,2.227,10.568,6.364l7.59-4.793C196.887,3.479,190.231,0,182.483,0v0.004V0c-12.012,0-21.408,8.347-21.408,22.428
		c0,14.084,9.396,22.429,21.408,22.429v-0.002v0.002c7.75,0,14.404-3.479,18.158-9.727l-7.59-4.794
		C190.995,34.473,187.188,36.7,182.483,36.7"/>
	<path d="M75.438,36.7v0.004V36.7c-7.134,0-12.232-5.096-12.232-14.272c0-9.176,5.099-14.271,12.232-14.271V8.152v0.004
		c4.705,0,8.512,2.227,10.568,6.364l7.59-4.793C89.845,3.479,83.188,0,75.438,0v0.004V0C63.427,0,54.03,8.347,54.03,22.428
		c0,14.084,9.396,22.429,21.408,22.429v-0.002v0.002c7.751,0,14.406-3.479,18.158-9.727l-7.59-4.794
		C83.95,34.473,80.144,36.7,75.438,36.7"/>
</g>
</svg>
